<svg xmlns="http://www.w3.org/2000/svg" style="display:none">
  <!-- SVG sprite: referenced via <use href="assets/icons.svg#id">.
       One HTTP request for all UI icons; each symbol inherits currentColor. -->

  <symbol id="phone" viewBox="0 0 24 24">
    <path fill="currentColor" d="M6.6 10.8a15.1 15.1 0 0 0 6.6 6.6l2.2-2.2a1 1 0 0 1 1-.25 11.4 11.4 0 0 0 3.6.58 1 1 0 0 1 1 1V20a1 1 0 0 1-1 1A17 17 0 0 1 3 4a1 1 0 0 1 1-1h3.5a1 1 0 0 1 1 1 11.4 11.4 0 0 0 .58 3.6 1 1 0 0 1-.25 1z"/>
  </symbol>

  <symbol id="whatsapp" viewBox="0 0 24 24">
    <path fill="currentColor" d="M12 2a10 10 0 0 0-8.5 15.3L2 22l4.8-1.5A10 10 0 1 0 12 2zm5.3 14.2c-.2.6-1.2 1.1-1.7 1.2-.4.1-1 .1-1.6-.1a10.7 10.7 0 0 1-4.9-4.3c-.4-.6-.8-1.4-.8-2.2 0-.7.4-1.1.6-1.3.2-.2.4-.2.6-.2h.4c.2 0 .4 0 .6.5l.7 1.7c.1.2 0 .4-.1.5l-.4.5c-.1.1-.2.3-.1.5.3.6.8 1.2 1.3 1.6.5.4 1 .6 1.3.7.2.1.4 0 .5-.1l.5-.6c.2-.2.3-.2.5-.1l1.6.8c.2.1.4.2.4.4.1.2.1.5 0 .7z"/>
  </symbol>

  <symbol id="shield" viewBox="0 0 24 24">
    <path fill="currentColor" d="M12 2 4 5v6c0 5 3.4 9.4 8 11 4.6-1.6 8-6 8-11V5l-8-3zm-1 13-3-3 1.4-1.4L11 12.2l4.6-4.6L17 9l-6 6z"/>
  </symbol>

  <symbol id="check" viewBox="0 0 24 24">
    <path fill="currentColor" d="M12 2a10 10 0 1 0 0 20 10 10 0 0 0 0-20zm-1.2 14.4-4-4L8.2 11l2.6 2.6L15.8 8l1.4 1.4-6.4 7z"/>
  </symbol>

  <symbol id="clock" viewBox="0 0 24 24">
    <path fill="currentColor" d="M12 2a10 10 0 1 0 0 20 10 10 0 0 0 0-20zm1 10.4-4.2-2.4V6h1.6v4.1l3.4 2z" transform="translate(0,1)"/>
    <path fill="currentColor" d="M12 2a10 10 0 1 0 0 20 10 10 0 0 0 0-20zm0 18a8 8 0 1 1 0-16 8 8 0 0 1 0 16zm.75-13h-1.5v5.25l4.5 2.7.75-1.23-3.75-2.22z"/>
  </symbol>

  <symbol id="stethoscope" viewBox="0 0 24 24">
    <path fill="currentColor" d="M6 3v6a4 4 0 0 0 8 0V3h-2v6a2 2 0 1 1-4 0V3H6zm7 12.9V13h-2v2.9a5 5 0 0 1-4 4.9V15H5v5a3 3 0 0 0 3 3h2a5 5 0 0 0 5-5v-.9a3 3 0 1 0-2 0zM18 14a1 1 0 1 1 0 2 1 1 0 0 1 0-2z"/>
  </symbol>

  <symbol id="pin" viewBox="0 0 24 24">
    <path fill="currentColor" d="M12 2a7 7 0 0 0-7 7c0 5 7 13 7 13s7-8 7-13a7 7 0 0 0-7-7zm0 9.5A2.5 2.5 0 1 1 12 6.5a2.5 2.5 0 0 1 0 5z"/>
  </symbol>

  <symbol id="report" viewBox="0 0 24 24">
    <path fill="currentColor" d="M6 2h9l5 5v13a2 2 0 0 1-2 2H6a2 2 0 0 1-2-2V4a2 2 0 0 1 2-2zm8 1.5V8h4.5L14 3.5zM8 12h8v1.6H8V12zm0 3.2h8v1.6H8v-1.6zM8 8.8h4v1.6H8V8.8z"/>
  </symbol>
</svg>
